<svg width="18" height="20" viewBox="0 0 18 20" fill="none" xmlns="http://www.w3.org/2000/svg">
<path fill-rule="evenodd" clip-rule="evenodd" d="M3.0001 8.80002V6.40002C3.0001 4.80873 3.63224 3.2826 4.75746 2.15738C5.88267 1.03217 7.4088 0.400024 9.0001 0.400024C10.5914 0.400024 12.1175 1.03217 13.2427 2.15738C14.368 3.2826 15.0001 4.80873 15.0001 6.40002V8.80002C15.6366 8.80002 16.2471 9.05288 16.6972 9.50297C17.1472 9.95306 17.4001 10.5635 17.4001 11.2V17.2C17.4001 17.8365 17.1472 18.447 16.6972 18.8971C16.2471 19.3472 15.6366 19.6 15.0001 19.6H3.0001C2.36358 19.6 1.75313 19.3472 1.30304 18.8971C0.852954 18.447 0.600098 17.8365 0.600098 17.2V11.2C0.600098 10.5635 0.852954 9.95306 1.30304 9.50297C1.75313 9.05288 2.36358 8.80002 3.0001 8.80002V8.80002ZM12.6001 6.40002V8.80002H5.4001V6.40002C5.4001 5.44525 5.77938 4.52957 6.45451 3.85444C7.12964 3.17931 8.04532 2.80002 9.0001 2.80002C9.95488 2.80002 10.8706 3.17931 11.5457 3.85444C12.2208 4.52957 12.6001 5.44525 12.6001 6.40002V6.40002Z" fill="#111827"/>
</svg>
