<svg width="18" height="20" viewBox="0 0 18 20" fill="none" xmlns="http://www.w3.org/2000/svg">
<path fill-rule="evenodd" clip-rule="evenodd" d="M9.00009 0.400024C6.34929 0.400024 4.20009 2.54922 4.20009 5.20002V6.40002H3.00009C2.38809 6.40002 1.8745 6.85964 1.8073 7.46804L0.6073 18.268C0.5701 18.6064 0.678091 18.946 0.906091 19.2004C1.13409 19.4548 1.45929 19.6 1.80009 19.6H16.2001C16.5409 19.6 16.8661 19.4548 17.0941 19.2004C17.3221 18.946 17.4301 18.6064 17.3929 18.268L16.1929 7.46804C16.1257 6.85964 15.6121 6.40002 15.0001 6.40002H13.8001V5.20002C13.8001 2.54922 11.6509 0.400024 9.00009 0.400024ZM11.4001 6.40002V5.20002C11.4001 3.87402 10.3261 2.80002 9.00009 2.80002C7.67409 2.80002 6.60009 3.87402 6.60009 5.20002V6.40002H11.4001ZM4.20009 10C4.20009 9.33762 4.73769 8.80002 5.40009 8.80002C6.06249 8.80002 6.60009 9.33762 6.60009 10C6.60009 10.6624 6.06249 11.2 5.40009 11.2C4.73769 11.2 4.20009 10.6624 4.20009 10ZM12.6001 8.80002C11.9377 8.80002 11.4001 9.33762 11.4001 10C11.4001 10.6624 11.9377 11.2 12.6001 11.2C13.2625 11.2 13.8001 10.6624 13.8001 10C13.8001 9.33762 13.2625 8.80002 12.6001 8.80002Z" fill="#111827"/>
</svg>
