<svg width="24" height="24" viewBox="0 0 24 24" fill="none" xmlns="http://www.w3.org/2000/svg">
<path d="M10.8001 2.40002C10.4818 2.40002 10.1766 2.52645 9.95157 2.7515C9.72653 2.97654 9.6001 3.28176 9.6001 3.60002C9.6001 3.91828 9.72653 4.22351 9.95157 4.44855C10.1766 4.6736 10.4818 4.80002 10.8001 4.80002H13.2001C13.5184 4.80002 13.8236 4.6736 14.0486 4.44855C14.2737 4.22351 14.4001 3.91828 14.4001 3.60002C14.4001 3.28176 14.2737 2.97654 14.0486 2.7515C13.8236 2.52645 13.5184 2.40002 13.2001 2.40002H10.8001Z" fill="#111827"/>
<path fill-rule="evenodd" clip-rule="evenodd" d="M4.7998 5.99998C4.7998 5.36346 5.05266 4.75301 5.50275 4.30292C5.95284 3.85283 6.56329 3.59998 7.1998 3.59998C7.1998 4.55475 7.57909 5.47043 8.25422 6.14556C8.92935 6.82069 9.84503 7.19998 10.7998 7.19998H13.1998C14.1546 7.19998 15.0703 6.82069 15.7454 6.14556C16.4205 5.47043 16.7998 4.55475 16.7998 3.59998C17.4363 3.59998 18.0468 3.85283 18.4969 4.30292C18.9469 4.75301 19.1998 5.36346 19.1998 5.99998V19.2C19.1998 19.8365 18.9469 20.4469 18.4969 20.897C18.0468 21.3471 17.4363 21.6 16.7998 21.6H7.1998C6.56329 21.6 5.95284 21.3471 5.50275 20.897C5.05266 20.4469 4.7998 19.8365 4.7998 19.2V5.99998ZM8.3998 10.8C8.08155 10.8 7.77632 10.9264 7.55128 11.1514C7.32623 11.3765 7.1998 11.6817 7.1998 12C7.1998 12.3182 7.32623 12.6235 7.55128 12.8485C7.77632 13.0735 8.08155 13.2 8.3998 13.2H8.41181C8.73006 13.2 9.03529 13.0735 9.26033 12.8485C9.48538 12.6235 9.61181 12.3182 9.61181 12C9.61181 11.6817 9.48538 11.3765 9.26033 11.1514C9.03529 10.9264 8.73006 10.8 8.41181 10.8H8.3998ZM11.9998 10.8C11.6815 10.8 11.3763 10.9264 11.1513 11.1514C10.9262 11.3765 10.7998 11.6817 10.7998 12C10.7998 12.3182 10.9262 12.6235 11.1513 12.8485C11.3763 13.0735 11.6815 13.2 11.9998 13.2H15.5998C15.9181 13.2 16.2233 13.0735 16.4483 12.8485C16.6734 12.6235 16.7998 12.3182 16.7998 12C16.7998 11.6817 16.6734 11.3765 16.4483 11.1514C16.2233 10.9264 15.9181 10.8 15.5998 10.8H11.9998ZM8.3998 15.6C8.08155 15.6 7.77632 15.7264 7.55128 15.9514C7.32623 16.1765 7.1998 16.4817 7.1998 16.8C7.1998 17.1182 7.32623 17.4235 7.55128 17.6485C7.77632 17.8735 8.08155 18 8.3998 18H8.41181C8.73006 18 9.03529 17.8735 9.26033 17.6485C9.48538 17.4235 9.61181 17.1182 9.61181 16.8C9.61181 16.4817 9.48538 16.1765 9.26033 15.9514C9.03529 15.7264 8.73006 15.6 8.41181 15.6H8.3998ZM11.9998 15.6C11.6815 15.6 11.3763 15.7264 11.1513 15.9514C10.9262 16.1765 10.7998 16.4817 10.7998 16.8C10.7998 17.1182 10.9262 17.4235 11.1513 17.6485C11.3763 17.8735 11.6815 18 11.9998 18H15.5998C15.9181 18 16.2233 17.8735 16.4483 17.6485C16.6734 17.4235 16.7998 17.1182 16.7998 16.8C16.7998 16.4817 16.6734 16.1765 16.4483 15.9514C16.2233 15.7264 15.9181 15.6 15.5998 15.6H11.9998Z" fill="#111827"/>
</svg>
