<svg width="16" height="20" viewBox="0 0 16 20" fill="none" xmlns="http://www.w3.org/2000/svg">
<path fill-rule="evenodd" clip-rule="evenodd" d="M3.1998 0.400024C2.56329 0.400024 1.95284 0.652881 1.50275 1.10297C1.05266 1.55306 0.799805 2.1635 0.799805 2.80002V17.2C0.799805 17.8365 1.05266 18.447 1.50275 18.8971C1.95284 19.3472 2.56329 19.6 3.1998 19.6H12.7998C13.4363 19.6 14.0468 19.3472 14.4969 18.8971C14.9469 18.447 15.1998 17.8365 15.1998 17.2V6.89682C15.1997 6.26036 14.9467 5.65001 14.4966 5.20002L10.3998 1.10322C9.94982 0.653106 9.33947 0.40016 8.70301 0.400024H3.1998ZM5.5998 12.4C5.5998 12.0818 5.47338 11.7765 5.24833 11.5515C5.02329 11.3265 4.71806 11.2 4.3998 11.2C4.08155 11.2 3.77632 11.3265 3.55128 11.5515C3.32623 11.7765 3.1998 12.0818 3.1998 12.4V16C3.1998 16.3183 3.32623 16.6235 3.55128 16.8486C3.77632 17.0736 4.08155 17.2 4.3998 17.2C4.71806 17.2 5.02329 17.0736 5.24833 16.8486C5.47338 16.6235 5.5998 16.3183 5.5998 16V12.4ZM7.9998 8.80002C8.31806 8.80002 8.62329 8.92645 8.84833 9.1515C9.07338 9.37654 9.19981 9.68176 9.19981 10V16C9.19981 16.3183 9.07338 16.6235 8.84833 16.8486C8.62329 17.0736 8.31806 17.2 7.9998 17.2C7.68155 17.2 7.37632 17.0736 7.15128 16.8486C6.92623 16.6235 6.7998 16.3183 6.7998 16V10C6.7998 9.68176 6.92623 9.37654 7.15128 9.1515C7.37632 8.92645 7.68155 8.80002 7.9998 8.80002V8.80002ZM12.7998 7.60002C12.7998 7.28176 12.6734 6.97654 12.4483 6.7515C12.2233 6.52645 11.9181 6.40002 11.5998 6.40002C11.2815 6.40002 10.9763 6.52645 10.7513 6.7515C10.5262 6.97654 10.3998 7.28176 10.3998 7.60002V16C10.3998 16.3183 10.5262 16.6235 10.7513 16.8486C10.9763 17.0736 11.2815 17.2 11.5998 17.2C11.9181 17.2 12.2233 17.0736 12.4483 16.8486C12.6734 16.6235 12.7998 16.3183 12.7998 16V7.60002Z" fill="#111827"/>
</svg>
